PathFileType	4	(X/Y/Z)	SUBJ63_2_walk_RCNL2025.trc
DataRate	CameraRate	NumFrames	NumMarkers	Units	OrigDataRate	OrigDataStartFrame	OrigNumFrames
100	100	10	25	mm	100	68	270
Frame#	Time	R_Shoulder			L_Shoulder			C7			J_Notch			R_Elbow			L_Elbow			R_Wrist			L_Wrist			R_Asis			L_Asis			Sacral			Thoracic			Sternum			R_Thigh_Lateral			R_Knee_Lateral			R_Shank_Lateral			R_Ankle_Lateral			R_Heel			R_Toe			L_Thigh_Lateral			L_Knee_Lateral			L_Shank_Lateral			L_Ankle_Lateral			L_Heel			L_Toe		
		X1	Y1	Z1	X2	Y2	Z2	X3	Y3	Z3	X4	Y4	Z4	X5	Y5	Z5	X6	Y6	Z6	X7	Y7	Z7	X8	Y8	Z8	X9	Y9	Z9	X10	Y10	Z10	X11	Y11	Z11	X12	Y12	Z12	X13	Y13	Z13	X14	Y14	Z14	X15	Y15	Z15	X16	Y16	Z16	X17	Y17	Z17	X18	Y18	Z18	X19	Y19	Z19	X20	Y20	Z20	X21	Y21	Z21	X22	Y22	Z22	X23	Y23	Z23	X24	Y24	Z24	X25	Y25	Z25
68	0.67000000	-591.604553	1264.848389	123.619476	-562.704041	1278.515869	-207.047775	-650.711670	1337.527588	-53.268230	-538.939209	1223.794556	-42.183128	-658.881226	987.998962	220.670273	-588.819580	983.568359	-308.594025	-604.678436	769.610535	269.952988	-441.634674	810.960327	-313.402588	-535.133423	834.983582	70.114075	-526.895386	809.732666	-178.774063	-751.307495	825.752625	-66.215317	-739.839478	1157.796021	-58.008251	-494.893433	1043.063721	-38.073391	-516.519897	496.943237	119.302429	-502.931366	444.397186	69.640663	-505.574463	262.461395	107.861557	-514.956909	58.356178	20.115391	-558.516113	57.479008	-32.179585	-400.807678	45.505440	20.797678	-608.101807	441.157196	-288.373901	-612.004700	412.562347	-222.248520	-756.592773	296.423035	-258.131317	-929.967224	203.433868	-186.945129	-952.566589	245.225037	-133.203003	-896.085938	87.074860	-178.912704
69	0.68000000	-573.642395	1266.789185	124.646751	-547.872620	1280.366333	-206.084213	-634.337524	1340.031250	-51.635048	-523.062866	1225.736450	-41.413380	-639.940002	989.939880	222.098770	-578.327393	985.552307	-307.497223	-584.696533	771.617065	270.470894	-436.324738	808.447815	-315.526505	-520.119507	837.099670	71.510300	-512.657898	811.787781	-177.588852	-737.473450	828.774292	-64.466087	-724.248413	1160.648804	-55.539707	-479.950623	1044.403076	-37.826706	-508.919098	497.165802	120.371628	-496.889801	444.341156	70.494873	-503.183350	262.160889	108.199493	-514.972717	58.433117	19.980059	-558.399048	57.775436	-32.272850	-400.856628	45.642509	20.707001	-577.523193	442.818390	-287.154022	-581.020020	414.331085	-220.927795	-724.131531	298.124390	-257.092712	-898.906799	207.163055	-187.001892	-922.346313	247.539810	-132.293213	-863.826843	91.784569	-182.461395
70	0.69000000	-555.802551	1268.928467	125.479774	-533.303223	1282.310303	-205.369080	-618.083984	1342.685181	-50.173035	-507.347778	1227.871826	-40.876694	-620.924500	992.135071	223.483551	-568.117371	987.648315	-306.389618	-564.515594	773.918579	270.926285	-431.660889	806.168793	-317.766998	-505.135223	839.171692	72.754654	-498.395508	814.377441	-176.698990	-723.873840	832.218445	-62.776176	-708.768982	1163.605469	-53.107891	-465.212311	1045.962524	-37.845173	-501.707153	497.484131	121.272720	-491.462708	444.339508	71.174438	-501.173065	261.881195	108.425011	-515.041199	58.495911	19.868607	-558.342102	58.009903	-32.380146	-400.934967	45.799255	20.652020	-547.599365	445.768707	-285.615723	-550.380188	417.320343	-219.344940	-691.303711	300.099030	-255.771408	-865.995117	208.569397	-186.722672	-890.932373	247.225525	-131.266602	-827.995422	94.925880	-185.065033
71	0.70000000	-538.107483	1271.255737	126.135574	-519.000610	1284.328491	-204.879074	-601.979370	1345.424561	-48.874832	-491.781158	1230.171631	-40.550514	-601.857971	994.568848	224.828842	-558.184265	989.838989	-305.258423	-544.153900	776.499573	271.314064	-427.581207	804.178284	-320.106033	-490.191895	841.158081	73.936592	-484.088654	817.491211	-176.006805	-710.388000	835.933167	-61.161873	-693.378235	1166.586792	-50.703304	-450.630951	1047.768677	-38.086796	-494.796326	497.878113	121.995102	-486.506256	444.398407	71.674606	-499.321259	261.653534	108.545319	-515.120728	58.554516	19.773071	-558.330688	58.212852	-32.484127	-401.006287	45.934479	20.619804	-518.409790	449.801239	-283.809174	-520.252869	421.369080	-217.542725	-658.327881	302.320190	-254.249344	-831.461731	207.625626	-186.129883	-858.432190	244.382584	-130.235184	-789.128174	96.385361	-186.524673
72	0.71000000	-520.580444	1273.744507	126.636246	-504.964417	1286.387207	-204.585556	-586.049377	1348.168335	-47.730556	-476.341431	1232.588135	-40.407799	-582.766968	997.201660	226.146271	-548.534790	992.088501	-304.102417	-523.629211	779.322418	271.641693	-424.014725	802.504761	-322.530594	-475.314545	843.019043	75.139534	-469.712952	821.067322	-175.396866	-696.862671	839.734253	-59.593025	-678.057190	1169.505371	-48.320564	-436.153809	1049.819824	-38.496754	-488.143524	498.306854	122.539345	-481.907593	444.503174	71.996750	-497.543793	261.507324	108.567360	-515.183044	58.619740	19.686092	-558.356628	58.415855	-32.566605	-401.046875	46.029430	20.602577	-489.980530	454.662018	-281.782501	-490.781830	426.259583	-215.552521	-625.376526	304.664276	-252.579041	-795.506409	204.422134	-185.235291	-824.905640	239.177170	-129.236679	-747.751953	96.201851	-186.774185
73	0.72000000	-503.242920	1276.348267	127.008736	-491.190796	1288.437500	-204.457291	-570.310120	1350.828857	-46.724834	-461.006134	1235.055786	-40.418751	-563.679871	999.971741	227.455002	-539.176147	994.343689	-302.927399	-502.958694	782.327545	271.928375	-420.884521	801.148010	-325.031372	-460.534454	844.714294	76.422089	-455.230103	824.997925	-174.757095	-683.158081	843.437683	-58.039711	-662.791687	1172.274414	-45.956120	-421.724640	1052.085815	-39.015278	-481.728912	498.726440	122.917145	-477.583313	444.632538	72.153885	-495.856201	261.462646	108.501953	-515.209717	58.703812	19.599663	-558.406555	58.646278	-32.623158	-401.044861	46.080730	20.599098	-462.332611	460.078247	-279.575836	-462.093323	431.741791	-213.392960	-592.580811	306.935272	-250.786545	-758.287048	199.141708	-184.040421	-790.363708	231.815048	-128.238037	-704.346130	94.537270	-185.879669
74	0.73000000	-486.111420	1278.999634	127.284294	-477.672760	1290.415527	-204.459473	-554.764160	1353.320190	-45.836517	-445.756958	1237.495117	-40.552700	-544.621643	1002.798157	228.777832	-530.104614	996.540527	-301.742950	-482.159088	785.437378	272.201797	-418.113403	800.080933	-327.601837	-445.878082	846.203430	77.813232	-440.599335	829.135742	-173.987900	-669.188904	846.889221	-56.516140	-647.569336	1174.815186	-43.604866	-407.288574	1054.510742	-39.584373	-475.538422	499.107147	123.150551	-473.477173	444.773682	72.175652	-494.312073	261.527527	108.365471	-515.188232	58.822166	19.503841	-558.451477	58.925789	-32.671455	-400.997437	46.094238	20.614351	-435.490295	465.772675	-277.218994	-434.295837	437.552856	-211.074173	-560.029846	308.895081	-248.881424	-719.917114	192.031677	-182.537857	-754.773743	222.523514	-127.149513	-659.321167	91.639908	-184.021103
75	0.74000000	-469.193817	1281.616699	127.496559	-464.396851	1292.246948	-204.551956	-539.400452	1355.564331	-45.040272	-430.579620	1239.818359	-40.780548	-525.609558	1005.586914	230.136673	-521.298645	998.612427	-300.559174	-461.247253	788.561859	272.493599	-415.629318	799.255585	-330.237167	-431.352905	847.449768	79.314651	-425.799805	833.302124	-173.003922	-654.929993	849.973511	-55.080536	-632.378845	1177.059448	-41.258831	-392.798523	1057.016846	-40.153118	-469.551483	499.441956	123.270210	-469.549988	444.927704	72.105820	-492.947449	261.698914	108.178406	-515.109802	58.992901	19.387901	-558.441223	59.268848	-32.751915	-400.906677	46.080097	20.657654	-409.472626	471.488220	-274.735077	-407.477905	443.433716	-208.605438	-527.769043	310.291962	-246.862427	-680.468750	183.379135	-180.715836	-718.068115	211.541977	-125.848663	-613.010986	87.810165	-181.457993
76	0.75000000	-452.487946	1284.109009	127.677963	-451.339417	1293.855347	-204.689575	-524.197632	1357.495850	-44.308823	-415.462250	1241.938110	-41.075741	-506.651764	1008.239685	231.550797	-512.717468	1000.496704	-299.382935	-440.240799	791.606476	272.834892	-413.367081	798.610718	-332.931686	-416.940918	848.420837	80.905609	-410.834351	837.302368	-171.745621	-640.397461	852.609985	-53.808441	-617.211182	1178.949829	-38.909805	-378.220703	1059.509888	-40.681831	-463.737305	499.743439	123.312347	-465.763916	445.105438	71.993484	-491.747589	261.964508	107.959511	-514.970093	59.233597	19.242723	-558.309326	59.681324	-32.919373	-400.775024	46.048962	20.739153	-384.294037	477.013275	-272.146606	-381.708710	449.140625	-206.001678	-495.802399	310.889008	-244.718933	-639.981323	173.492004	-178.564911	-680.153137	199.120590	-124.209450	-565.678223	83.372536	-178.485428
77	0.76000000	-435.981476	1286.386597	127.855553	-438.465454	1295.171021	-204.826355	-509.127716	1359.062500	-43.615414	-400.395966	1243.774658	-41.412735	-487.749329	1010.662903	233.036240	-504.305267	1002.140015	-298.217224	-419.157349	794.481171	273.254074	-411.267212	798.080444	-335.675552	-402.608429	849.082703	82.552017	-395.712067	840.947449	-170.195999	-625.629028	854.748474	-52.768360	-602.061890	1180.440063	-36.555859	-363.538147	1061.886108	-41.144890	-458.059113	500.033234	123.314354	-462.069855	445.320099	71.883293	-490.646271	262.309906	107.720833	-514.768860	59.559029	19.060570	-557.993713	60.166954	-33.224232	-400.601440	46.008961	20.865301	-359.979401	482.187561	-269.478333	-357.041901	454.451599	-203.288818	-464.102905	310.497650	-242.435547	-598.471008	162.686020	-176.084808	-640.921326	185.523926	-122.128250	-517.527100	78.656273	-175.392456
